<mxfile host="app.diagrams.net" modified="2023-02-24T01:37:36.139Z" agent="5.0 (X11; Linux x86_64) AppleWebKit/537.36 (KHTML, like Gecko) Chrome/110.0.0.0 Safari/537.36" version="20.7.3" etag="DITKCVlbkMQITbfuZ4Vz" type="github">
  <diagram id="QsOQ4QXmdrIGZMQj0x0d" name="Page-1">
    <mxGraphModel dx="654" dy="352" grid="1" gridSize="10" guides="1" tooltips="1" connect="1" arrows="1" fold="1" page="1" pageScale="1" pageWidth="850" pageHeight="1100" math="0" shadow="0">
      <root>
        <mxCell id="0" />
        <mxCell id="1" parent="0" />
        <mxCell id="_je04n-Sk0oRXr9PTFX6-1" value="" style="endArrow=classic;html=1;rounded=0;" edge="1" parent="1">
          <mxGeometry width="50" height="50" relative="1" as="geometry">
            <mxPoint x="200" y="320" as="sourcePoint" />
            <mxPoint x="1130" y="320" as="targetPoint" />
          </mxGeometry>
        </mxCell>
        <mxCell id="_je04n-Sk0oRXr9PTFX6-3" value="Milênio" style="text;html=1;strokeColor=none;fillColor=none;align=center;verticalAlign=middle;whiteSpace=wrap;rounded=0;" vertex="1" parent="1">
          <mxGeometry x="1120" y="330" width="60" height="30" as="geometry" />
        </mxCell>
        <mxCell id="_je04n-Sk0oRXr9PTFX6-4" value="" style="endArrow=none;dashed=1;html=1;dashPattern=1 3;strokeWidth=2;rounded=0;" edge="1" parent="1">
          <mxGeometry width="50" height="50" relative="1" as="geometry">
            <mxPoint x="1130" y="320" as="sourcePoint" />
            <mxPoint x="1170" y="320" as="targetPoint" />
          </mxGeometry>
        </mxCell>
        <mxCell id="_je04n-Sk0oRXr9PTFX6-5" value="2036" style="text;html=1;strokeColor=none;fillColor=none;align=center;verticalAlign=middle;whiteSpace=wrap;rounded=0;" vertex="1" parent="1">
          <mxGeometry x="1070" y="150" width="60" height="30" as="geometry" />
        </mxCell>
        <mxCell id="_je04n-Sk0oRXr9PTFX6-6" value="Vinda de Jesus" style="text;html=1;strokeColor=none;fillColor=none;align=center;verticalAlign=middle;whiteSpace=wrap;rounded=0;" vertex="1" parent="1">
          <mxGeometry x="1047.5" y="160" width="105" height="30" as="geometry" />
        </mxCell>
        <mxCell id="_je04n-Sk0oRXr9PTFX6-14" value="" style="group" vertex="1" connectable="0" parent="1">
          <mxGeometry x="780" y="250" width="160" height="40" as="geometry" />
        </mxCell>
        <mxCell id="_je04n-Sk0oRXr9PTFX6-8" value="" style="shape=curlyBracket;whiteSpace=wrap;html=1;rounded=1;labelPosition=left;verticalLabelPosition=middle;align=right;verticalAlign=middle;rotation=90;" vertex="1" parent="_je04n-Sk0oRXr9PTFX6-14">
          <mxGeometry x="70" y="-50" width="20" height="160" as="geometry" />
        </mxCell>
        <mxCell id="_je04n-Sk0oRXr9PTFX6-9" value="3,5 anos" style="text;html=1;strokeColor=none;fillColor=none;align=center;verticalAlign=middle;whiteSpace=wrap;rounded=0;" vertex="1" parent="_je04n-Sk0oRXr9PTFX6-14">
          <mxGeometry x="50" width="60" height="30" as="geometry" />
        </mxCell>
        <mxCell id="_je04n-Sk0oRXr9PTFX6-15" value="" style="group;fontColor=default;" vertex="1" connectable="0" parent="1">
          <mxGeometry x="940" y="250" width="160" height="50" as="geometry" />
        </mxCell>
        <mxCell id="_je04n-Sk0oRXr9PTFX6-16" value="" style="shape=curlyBracket;whiteSpace=wrap;html=1;rounded=1;labelPosition=left;verticalLabelPosition=middle;align=right;verticalAlign=middle;rotation=90;" vertex="1" parent="_je04n-Sk0oRXr9PTFX6-15">
          <mxGeometry x="70" y="-50" width="20" height="160" as="geometry" />
        </mxCell>
        <mxCell id="_je04n-Sk0oRXr9PTFX6-17" value="3,5 anos&lt;br&gt;42 meses" style="text;html=1;strokeColor=none;fillColor=none;align=center;verticalAlign=middle;whiteSpace=wrap;rounded=0;" vertex="1" parent="_je04n-Sk0oRXr9PTFX6-15">
          <mxGeometry x="50" y="-8" width="60" height="30" as="geometry" />
        </mxCell>
        <mxCell id="_je04n-Sk0oRXr9PTFX6-121" value="Ap 11:11e 13:5" style="text;strokeColor=none;fillColor=none;align=center;verticalAlign=middle;rounded=0;shadow=0;labelBackgroundColor=none;sketch=0;strokeWidth=2;fontSize=10;labelBorderColor=none;horizontal=1;fontColor=#CC0000;" vertex="1" parent="_je04n-Sk0oRXr9PTFX6-15">
          <mxGeometry x="40" y="30" width="80" height="20" as="geometry" />
        </mxCell>
        <mxCell id="_je04n-Sk0oRXr9PTFX6-19" value="Reinado da Besta /&amp;nbsp;JP II" style="text;html=1;strokeColor=#b85450;fillColor=#f8cecc;align=center;verticalAlign=middle;whiteSpace=wrap;rounded=0;fontSize=10;" vertex="1" parent="1">
          <mxGeometry x="940" y="300" width="160" height="19" as="geometry" />
        </mxCell>
        <mxCell id="_je04n-Sk0oRXr9PTFX6-21" value="" style="html=1;verticalAlign=bottom;startArrow=oval;startFill=1;endArrow=block;startSize=8;rounded=0;" edge="1" parent="1">
          <mxGeometry x="-1" width="60" relative="1" as="geometry">
            <mxPoint x="780" y="310" as="sourcePoint" />
            <mxPoint x="780" y="320" as="targetPoint" />
            <mxPoint as="offset" />
          </mxGeometry>
        </mxCell>
        <mxCell id="_je04n-Sk0oRXr9PTFX6-23" value="2029" style="text;html=1;strokeColor=none;fillColor=none;align=center;verticalAlign=middle;whiteSpace=wrap;rounded=0;" vertex="1" parent="1">
          <mxGeometry x="765" y="294" width="30" height="10" as="geometry" />
        </mxCell>
        <mxCell id="_je04n-Sk0oRXr9PTFX6-24" value="&lt;h1&gt;Gráfico do Apocalipse até a vinda de Jesus&lt;/h1&gt;&lt;p&gt;Obs: 1 ano -&amp;gt; 360 dias&lt;/p&gt;" style="text;html=1;strokeColor=none;fillColor=none;spacing=5;spacingTop=-20;whiteSpace=wrap;overflow=hidden;rounded=0;" vertex="1" parent="1">
          <mxGeometry x="349" y="20" width="520" height="120" as="geometry" />
        </mxCell>
        <mxCell id="_je04n-Sk0oRXr9PTFX6-25" value="" style="html=1;verticalAlign=bottom;startArrow=oval;startFill=1;endArrow=block;startSize=8;rounded=0;" edge="1" parent="1">
          <mxGeometry width="60" relative="1" as="geometry">
            <mxPoint x="1100" y="319.9999999999999" as="sourcePoint" />
            <mxPoint x="1100" y="180" as="targetPoint" />
          </mxGeometry>
        </mxCell>
        <mxCell id="_je04n-Sk0oRXr9PTFX6-27" value="" style="html=1;verticalAlign=bottom;startArrow=oval;startFill=1;endArrow=block;startSize=8;rounded=0;" edge="1" parent="1">
          <mxGeometry width="60" relative="1" as="geometry">
            <mxPoint x="670" y="310" as="sourcePoint" />
            <mxPoint x="670" y="320" as="targetPoint" />
          </mxGeometry>
        </mxCell>
        <mxCell id="_je04n-Sk0oRXr9PTFX6-28" value="2028" style="text;html=1;strokeColor=none;fillColor=none;align=center;verticalAlign=middle;whiteSpace=wrap;rounded=0;" vertex="1" parent="1">
          <mxGeometry x="655" y="294" width="30" height="10" as="geometry" />
        </mxCell>
        <mxCell id="_je04n-Sk0oRXr9PTFX6-29" value="" style="html=1;verticalAlign=bottom;startArrow=oval;startFill=1;endArrow=block;startSize=8;rounded=0;" edge="1" parent="1">
          <mxGeometry width="60" relative="1" as="geometry">
            <mxPoint x="440" y="310" as="sourcePoint" />
            <mxPoint x="440" y="320" as="targetPoint" />
          </mxGeometry>
        </mxCell>
        <mxCell id="_je04n-Sk0oRXr9PTFX6-30" value="2025" style="text;html=1;strokeColor=none;fillColor=none;align=center;verticalAlign=middle;whiteSpace=wrap;rounded=0;" vertex="1" parent="1">
          <mxGeometry x="425" y="294" width="30" height="10" as="geometry" />
        </mxCell>
        <mxCell id="_je04n-Sk0oRXr9PTFX6-31" value="" style="html=1;verticalAlign=bottom;startArrow=oval;startFill=1;endArrow=block;startSize=8;rounded=0;" edge="1" parent="1">
          <mxGeometry width="60" relative="1" as="geometry">
            <mxPoint x="295" y="309.9999999999999" as="sourcePoint" />
            <mxPoint x="295" y="319.9999999999999" as="targetPoint" />
          </mxGeometry>
        </mxCell>
        <mxCell id="_je04n-Sk0oRXr9PTFX6-32" value="2023" style="text;html=1;strokeColor=none;fillColor=none;align=center;verticalAlign=middle;whiteSpace=wrap;rounded=0;" vertex="1" parent="1">
          <mxGeometry x="280" y="294" width="30" height="10" as="geometry" />
        </mxCell>
        <mxCell id="_je04n-Sk0oRXr9PTFX6-48" value="Selos" style="text;html=1;strokeColor=none;fillColor=none;align=center;verticalAlign=middle;whiteSpace=wrap;rounded=0;" vertex="1" parent="1">
          <mxGeometry x="130" y="337" width="60" height="30" as="geometry" />
        </mxCell>
        <mxCell id="_je04n-Sk0oRXr9PTFX6-49" value="" style="endArrow=classic;html=1;rounded=0;fillColor=#1ba1e2;strokeColor=#006EAF;" edge="1" parent="1">
          <mxGeometry width="50" height="50" relative="1" as="geometry">
            <mxPoint x="180" y="351.83" as="sourcePoint" />
            <mxPoint x="560" y="350" as="targetPoint" />
          </mxGeometry>
        </mxCell>
        <mxCell id="_je04n-Sk0oRXr9PTFX6-50" value="4" style="text;html=1;strokeColor=none;fillColor=none;align=center;verticalAlign=middle;whiteSpace=wrap;rounded=0;" vertex="1" parent="1">
          <mxGeometry x="460" y="335" width="10" height="20" as="geometry" />
        </mxCell>
        <mxCell id="_je04n-Sk0oRXr9PTFX6-51" value="5" style="text;html=1;strokeColor=none;fillColor=none;align=center;verticalAlign=middle;whiteSpace=wrap;rounded=0;" vertex="1" parent="1">
          <mxGeometry x="490" y="335" width="10" height="20" as="geometry" />
        </mxCell>
        <mxCell id="_je04n-Sk0oRXr9PTFX6-52" value="6" style="text;html=1;strokeColor=none;fillColor=none;align=center;verticalAlign=middle;whiteSpace=wrap;rounded=0;" vertex="1" parent="1">
          <mxGeometry x="520" y="335" width="10" height="20" as="geometry" />
        </mxCell>
        <mxCell id="_je04n-Sk0oRXr9PTFX6-54" value="" style="endArrow=classic;html=1;rounded=0;fontColor=#631d1d;labelBorderColor=none;fillColor=#a20025;strokeColor=#6F0000;" edge="1" parent="1">
          <mxGeometry width="50" height="50" relative="1" as="geometry">
            <mxPoint x="520" y="385" as="sourcePoint" />
            <mxPoint x="670" y="385" as="targetPoint" />
          </mxGeometry>
        </mxCell>
        <mxCell id="_je04n-Sk0oRXr9PTFX6-57" value="Trombetas" style="text;html=1;strokeColor=none;fillColor=none;align=center;verticalAlign=middle;whiteSpace=wrap;rounded=0;fontColor=#680808;" vertex="1" parent="1">
          <mxGeometry x="460" y="367" width="60" height="30" as="geometry" />
        </mxCell>
        <mxCell id="_je04n-Sk0oRXr9PTFX6-60" value="7 dias" style="shape=partialRectangle;whiteSpace=wrap;html=1;top=0;bottom=0;fillColor=none;fontColor=#631d1d;" vertex="1" parent="1">
          <mxGeometry x="530" y="360" width="40" height="20" as="geometry" />
        </mxCell>
        <mxCell id="_je04n-Sk0oRXr9PTFX6-61" value="1" style="text;html=1;strokeColor=none;fillColor=none;align=center;verticalAlign=middle;whiteSpace=wrap;rounded=0;" vertex="1" parent="1">
          <mxGeometry x="564" y="382" width="10" height="20" as="geometry" />
        </mxCell>
        <mxCell id="_je04n-Sk0oRXr9PTFX6-66" value="2" style="text;html=1;strokeColor=none;fillColor=none;align=center;verticalAlign=middle;whiteSpace=wrap;rounded=0;" vertex="1" parent="1">
          <mxGeometry x="574" y="382" width="10" height="20" as="geometry" />
        </mxCell>
        <mxCell id="_je04n-Sk0oRXr9PTFX6-67" value="3" style="text;html=1;strokeColor=none;fillColor=none;align=center;verticalAlign=middle;whiteSpace=wrap;rounded=0;" vertex="1" parent="1">
          <mxGeometry x="584" y="382" width="10" height="20" as="geometry" />
        </mxCell>
        <mxCell id="_je04n-Sk0oRXr9PTFX6-68" value="4" style="text;html=1;strokeColor=none;fillColor=none;align=center;verticalAlign=middle;whiteSpace=wrap;rounded=0;" vertex="1" parent="1">
          <mxGeometry x="594" y="382" width="10" height="20" as="geometry" />
        </mxCell>
        <mxCell id="_je04n-Sk0oRXr9PTFX6-69" value="5" style="text;html=1;strokeColor=none;fillColor=none;align=center;verticalAlign=middle;whiteSpace=wrap;rounded=0;" vertex="1" parent="1">
          <mxGeometry x="604" y="382" width="10" height="20" as="geometry" />
        </mxCell>
        <mxCell id="_je04n-Sk0oRXr9PTFX6-70" value="6" style="text;html=1;strokeColor=none;fillColor=none;align=center;verticalAlign=middle;whiteSpace=wrap;rounded=0;" vertex="1" parent="1">
          <mxGeometry x="630" y="382" width="10" height="20" as="geometry" />
        </mxCell>
        <mxCell id="_je04n-Sk0oRXr9PTFX6-81" value="" style="group" vertex="1" connectable="0" parent="1">
          <mxGeometry x="200" y="410" width="240" height="70" as="geometry" />
        </mxCell>
        <mxCell id="_je04n-Sk0oRXr9PTFX6-33" value="" style="shape=crossbar;whiteSpace=wrap;html=1;rounded=1;fillColor=#d5e8d4;strokeColor=#82b366;" vertex="1" parent="_je04n-Sk0oRXr9PTFX6-81">
          <mxGeometry y="15" width="240" height="20" as="geometry" />
        </mxCell>
        <mxCell id="_je04n-Sk0oRXr9PTFX6-34" value="Daniel 11:2" style="text;html=1;strokeColor=none;fillColor=none;align=center;verticalAlign=middle;whiteSpace=wrap;rounded=0;" vertex="1" parent="_je04n-Sk0oRXr9PTFX6-81">
          <mxGeometry x="90" width="80" height="30" as="geometry" />
        </mxCell>
        <mxCell id="_je04n-Sk0oRXr9PTFX6-79" value="" style="group" vertex="1" connectable="0" parent="_je04n-Sk0oRXr9PTFX6-81">
          <mxGeometry y="50" width="240" height="20" as="geometry" />
        </mxCell>
        <mxCell id="_je04n-Sk0oRXr9PTFX6-74" value="" style="shape=crossbar;whiteSpace=wrap;html=1;rounded=1;fontColor=#631d1d;" vertex="1" parent="_je04n-Sk0oRXr9PTFX6-79">
          <mxGeometry width="60" height="20" as="geometry" />
        </mxCell>
        <mxCell id="_je04n-Sk0oRXr9PTFX6-75" value="" style="shape=crossbar;whiteSpace=wrap;html=1;rounded=1;fontColor=#631d1d;" vertex="1" parent="_je04n-Sk0oRXr9PTFX6-79">
          <mxGeometry x="60" width="60" height="20" as="geometry" />
        </mxCell>
        <mxCell id="_je04n-Sk0oRXr9PTFX6-77" value="" style="shape=crossbar;whiteSpace=wrap;html=1;rounded=1;fontColor=#631d1d;" vertex="1" parent="_je04n-Sk0oRXr9PTFX6-79">
          <mxGeometry x="120" width="60" height="20" as="geometry" />
        </mxCell>
        <mxCell id="_je04n-Sk0oRXr9PTFX6-78" value="" style="shape=crossbar;whiteSpace=wrap;html=1;rounded=1;fontColor=#631d1d;" vertex="1" parent="_je04n-Sk0oRXr9PTFX6-79">
          <mxGeometry x="180" width="60" height="20" as="geometry" />
        </mxCell>
        <mxCell id="_je04n-Sk0oRXr9PTFX6-83" value="1 Reino" style="text;html=1;strokeColor=none;fillColor=none;align=center;verticalAlign=middle;whiteSpace=wrap;rounded=0;labelBackgroundColor=none;fontColor=#000000;" vertex="1" parent="_je04n-Sk0oRXr9PTFX6-79">
          <mxGeometry y="-14" width="60" height="30" as="geometry" />
        </mxCell>
        <mxCell id="_je04n-Sk0oRXr9PTFX6-84" value="2 Reino" style="text;html=1;strokeColor=none;fillColor=none;align=center;verticalAlign=middle;whiteSpace=wrap;rounded=0;labelBackgroundColor=none;fontColor=#000000;" vertex="1" parent="_je04n-Sk0oRXr9PTFX6-79">
          <mxGeometry x="60" y="-14" width="60" height="30" as="geometry" />
        </mxCell>
        <mxCell id="_je04n-Sk0oRXr9PTFX6-85" value="3 Reino" style="text;html=1;strokeColor=none;fillColor=none;align=center;verticalAlign=middle;whiteSpace=wrap;rounded=0;labelBackgroundColor=none;fontColor=#000000;" vertex="1" parent="_je04n-Sk0oRXr9PTFX6-79">
          <mxGeometry x="120" y="-14" width="60" height="30" as="geometry" />
        </mxCell>
        <mxCell id="_je04n-Sk0oRXr9PTFX6-86" value="4 Reino" style="text;html=1;strokeColor=none;fillColor=none;align=center;verticalAlign=middle;whiteSpace=wrap;rounded=0;labelBackgroundColor=none;fontColor=#000000;" vertex="1" parent="_je04n-Sk0oRXr9PTFX6-81">
          <mxGeometry x="180" y="35" width="60" height="30" as="geometry" />
        </mxCell>
        <mxCell id="_je04n-Sk0oRXr9PTFX6-87" value="" style="endArrow=none;dashed=1;html=1;strokeWidth=2;rounded=0;labelBorderColor=none;fontColor=#000000;dashPattern=1 4;strokeColor=#A50040;fillColor=#d80073;" edge="1" parent="1">
          <mxGeometry width="50" height="50" relative="1" as="geometry">
            <mxPoint x="440" y="420" as="sourcePoint" />
            <mxPoint x="440" y="320" as="targetPoint" />
          </mxGeometry>
        </mxCell>
        <mxCell id="_je04n-Sk0oRXr9PTFX6-89" value="" style="shape=curlyBracket;whiteSpace=wrap;html=1;rounded=1;flipH=1;labelPosition=right;verticalLabelPosition=middle;align=left;verticalAlign=middle;labelBackgroundColor=none;fontColor=#000000;rotation=-90;" vertex="1" parent="1">
          <mxGeometry x="646" y="256.5" width="20" height="27" as="geometry" />
        </mxCell>
        <mxCell id="_je04n-Sk0oRXr9PTFX6-90" value="Selamento" style="text;html=1;strokeColor=none;fillColor=none;align=center;verticalAlign=middle;whiteSpace=wrap;rounded=0;labelBackgroundColor=none;fontColor=#000000;" vertex="1" parent="1">
          <mxGeometry x="625" y="240" width="60" height="30" as="geometry" />
        </mxCell>
        <mxCell id="_je04n-Sk0oRXr9PTFX6-91" value="mar/abr" style="text;html=1;strokeColor=none;fillColor=none;align=center;verticalAlign=middle;whiteSpace=wrap;rounded=0;labelBackgroundColor=none;fontColor=#000000;" vertex="1" parent="1">
          <mxGeometry x="650" y="325" width="40" height="10" as="geometry" />
        </mxCell>
        <mxCell id="_je04n-Sk0oRXr9PTFX6-92" value="" style="shape=crossbar;whiteSpace=wrap;html=1;rounded=1;labelBackgroundColor=none;fillColor=#b1ddf0;strokeColor=#10739e;fontStyle=0;strokeWidth=2;shadow=0;" vertex="1" parent="1">
          <mxGeometry x="795" y="500" width="295" height="20" as="geometry" />
        </mxCell>
        <mxCell id="_je04n-Sk0oRXr9PTFX6-93" value="2300 Tardes e Manhãs" style="text;html=1;strokeColor=none;fillColor=none;align=center;verticalAlign=middle;whiteSpace=wrap;rounded=0;labelBackgroundColor=none;fontColor=#000000;" vertex="1" parent="1">
          <mxGeometry x="890" y="595" width="130" height="30" as="geometry" />
        </mxCell>
        <mxCell id="_je04n-Sk0oRXr9PTFX6-96" value="" style="html=1;verticalAlign=bottom;startArrow=oval;startFill=1;endArrow=block;startSize=8;rounded=0;" edge="1" parent="1">
          <mxGeometry x="-1" width="60" relative="1" as="geometry">
            <mxPoint x="795" y="330" as="sourcePoint" />
            <mxPoint x="795" y="320" as="targetPoint" />
            <mxPoint as="offset" />
          </mxGeometry>
        </mxCell>
        <mxCell id="_je04n-Sk0oRXr9PTFX6-97" value="2030" style="text;html=1;strokeColor=none;fillColor=none;align=center;verticalAlign=middle;whiteSpace=wrap;rounded=0;fontSize=12;" vertex="1" parent="1">
          <mxGeometry x="780" y="337" width="30" height="10" as="geometry" />
        </mxCell>
        <mxCell id="_je04n-Sk0oRXr9PTFX6-98" value="" style="endArrow=none;dashed=1;html=1;rounded=0;dashPattern=1 4;labelBorderColor=none;strokeColor=#837777;strokeWidth=2;fontSize=12;fontColor=#000000;exitX=0;exitY=0.5;exitDx=0;exitDy=0;exitPerimeter=0;" edge="1" parent="1">
          <mxGeometry width="50" height="50" relative="1" as="geometry">
            <mxPoint x="795" y="510" as="sourcePoint" />
            <mxPoint x="795" y="320" as="targetPoint" />
          </mxGeometry>
        </mxCell>
        <mxCell id="_je04n-Sk0oRXr9PTFX6-99" value="" style="endArrow=none;dashed=1;html=1;rounded=0;dashPattern=1 4;labelBorderColor=none;strokeColor=#837777;strokeWidth=2;fontSize=12;fontColor=#000000;" edge="1" parent="1">
          <mxGeometry width="50" height="50" relative="1" as="geometry">
            <mxPoint x="1090" y="510" as="sourcePoint" />
            <mxPoint x="1090" y="320" as="targetPoint" />
          </mxGeometry>
        </mxCell>
        <mxCell id="_je04n-Sk0oRXr9PTFX6-100" value="" style="shape=curlyBracket;whiteSpace=wrap;html=1;rounded=1;flipH=1;labelPosition=right;verticalLabelPosition=middle;align=left;verticalAlign=middle;shadow=0;labelBackgroundColor=none;sketch=0;strokeWidth=2;fontSize=12;fontColor=#000000;gradientColor=none;rotation=-90;" vertex="1" parent="1">
          <mxGeometry x="1004" y="402" width="20" height="150" as="geometry" />
        </mxCell>
        <mxCell id="_je04n-Sk0oRXr9PTFX6-101" value="" style="endArrow=none;dashed=1;html=1;rounded=0;dashPattern=1 4;labelBorderColor=none;strokeColor=#837777;strokeWidth=2;fontSize=12;fontColor=#000000;entryX=0;entryY=1;entryDx=0;entryDy=0;" edge="1" parent="1" target="_je04n-Sk0oRXr9PTFX6-19">
          <mxGeometry width="50" height="50" relative="1" as="geometry">
            <mxPoint x="940" y="480" as="sourcePoint" />
            <mxPoint x="970" y="470" as="targetPoint" />
          </mxGeometry>
        </mxCell>
        <mxCell id="_je04n-Sk0oRXr9PTFX6-102" value="1260 dias" style="text;html=1;strokeColor=none;fillColor=none;align=center;verticalAlign=middle;whiteSpace=wrap;rounded=0;shadow=0;labelBackgroundColor=none;sketch=0;strokeWidth=2;fontSize=12;fontColor=#000000;" vertex="1" parent="1">
          <mxGeometry x="984" y="435" width="60" height="20" as="geometry" />
        </mxCell>
        <mxCell id="_je04n-Sk0oRXr9PTFX6-103" value="Dn 12:7" style="text;html=1;strokeColor=none;fillColor=none;align=center;verticalAlign=middle;whiteSpace=wrap;rounded=0;shadow=0;labelBackgroundColor=none;sketch=0;strokeWidth=2;fontSize=10;fontColor=#FF0000;labelBorderColor=none;" vertex="1" parent="1">
          <mxGeometry x="987.5" y="445" width="60" height="20" as="geometry" />
        </mxCell>
        <mxCell id="_je04n-Sk0oRXr9PTFX6-104" value="" style="shape=curlyBracket;whiteSpace=wrap;html=1;rounded=1;flipH=1;labelPosition=right;verticalLabelPosition=middle;align=left;verticalAlign=middle;shadow=0;labelBackgroundColor=none;labelBorderColor=none;sketch=0;strokeWidth=2;fontSize=10;fontColor=#FF0000;gradientColor=none;rotation=90;" vertex="1" parent="1">
          <mxGeometry x="977.5" y="435" width="20" height="210" as="geometry" />
        </mxCell>
        <mxCell id="_je04n-Sk0oRXr9PTFX6-106" value="1335 dias" style="text;html=1;strokeColor=none;fillColor=none;align=center;verticalAlign=middle;whiteSpace=wrap;rounded=0;shadow=0;labelBackgroundColor=none;sketch=0;strokeWidth=2;fontSize=12;fontColor=#000000;" vertex="1" parent="1">
          <mxGeometry x="957.5" y="552" width="60" height="20" as="geometry" />
        </mxCell>
        <mxCell id="_je04n-Sk0oRXr9PTFX6-107" value="" style="shape=curlyBracket;whiteSpace=wrap;html=1;rounded=1;flipH=1;labelPosition=right;verticalLabelPosition=middle;align=left;verticalAlign=middle;shadow=0;labelBackgroundColor=none;labelBorderColor=none;sketch=0;strokeWidth=2;fontSize=10;fontColor=#FF0000;gradientColor=none;rotation=90;size=0.5;" vertex="1" parent="1">
          <mxGeometry x="812.5" y="512.5" width="20" height="55" as="geometry" />
        </mxCell>
        <mxCell id="_je04n-Sk0oRXr9PTFX6-108" value="70 semanas" style="text;html=1;strokeColor=none;fillColor=none;align=center;verticalAlign=middle;whiteSpace=wrap;rounded=0;shadow=0;labelBackgroundColor=none;sketch=0;strokeWidth=2;fontSize=12;fontColor=#000000;" vertex="1" parent="1">
          <mxGeometry x="787.5" y="550" width="70" height="20" as="geometry" />
        </mxCell>
        <mxCell id="_je04n-Sk0oRXr9PTFX6-109" value="Dn 12:12" style="text;html=1;strokeColor=none;fillColor=none;align=center;verticalAlign=middle;whiteSpace=wrap;rounded=0;shadow=0;labelBackgroundColor=none;sketch=0;strokeWidth=2;fontSize=10;fontColor=#FF0000;labelBorderColor=none;" vertex="1" parent="1">
          <mxGeometry x="957.5" y="567.5" width="60" height="20" as="geometry" />
        </mxCell>
        <mxCell id="_je04n-Sk0oRXr9PTFX6-112" value="Decreto&lt;br&gt;Dominical&lt;br&gt;Mundial" style="rounded=1;arcSize=40;fontColor=default;fillColor=#ffffc0;strokeColor=#ff0000;shadow=1;labelBackgroundColor=none;labelBorderColor=none;strokeWidth=1;fontSize=10;glass=0;whiteSpace=wrap;html=1;" vertex="1" parent="1">
          <mxGeometry x="850" y="445" width="60" height="40" as="geometry" />
        </mxCell>
        <mxCell id="_je04n-Sk0oRXr9PTFX6-113" value="" style="edgeStyle=orthogonalEdgeStyle;verticalAlign=middle;endArrow=open;endSize=8;strokeColor=#ff0000;rounded=0;dashed=1;dashPattern=1 4;labelBorderColor=none;strokeWidth=1;fontSize=10;fontColor=#FF0000;jumpSize=3;labelBackgroundColor=none;html=1;" edge="1" source="_je04n-Sk0oRXr9PTFX6-112" parent="1">
          <mxGeometry relative="1" as="geometry">
            <mxPoint x="880" y="512.5" as="targetPoint" />
          </mxGeometry>
        </mxCell>
        <mxCell id="_je04n-Sk0oRXr9PTFX6-114" value="" style="shape=curlyBracket;whiteSpace=wrap;html=1;rounded=1;flipH=1;labelPosition=right;verticalLabelPosition=middle;align=left;verticalAlign=middle;shadow=0;glass=0;labelBackgroundColor=none;labelBorderColor=none;sketch=0;strokeWidth=1;fontSize=10;fontColor=default;gradientColor=none;rotation=90;" vertex="1" parent="1">
          <mxGeometry x="917" y="316.5" width="20" height="27" as="geometry" />
        </mxCell>
        <mxCell id="_je04n-Sk0oRXr9PTFX6-115" value="15 dias" style="text;html=1;strokeColor=none;fillColor=none;align=center;verticalAlign=middle;whiteSpace=wrap;rounded=0;shadow=0;glass=0;labelBackgroundColor=none;labelBorderColor=none;sketch=0;strokeWidth=1;fontSize=10;fontColor=default;" vertex="1" parent="1">
          <mxGeometry x="908.5" y="337" width="37" height="14" as="geometry" />
        </mxCell>
        <mxCell id="_je04n-Sk0oRXr9PTFX6-116" value="Ap 17:12,13" style="text;html=1;strokeColor=none;fillColor=none;align=center;verticalAlign=middle;whiteSpace=wrap;rounded=0;shadow=0;labelBackgroundColor=none;sketch=0;strokeWidth=2;fontSize=10;fontColor=#FF0000;labelBorderColor=none;" vertex="1" parent="1">
          <mxGeometry x="897" y="343.5" width="60" height="20" as="geometry" />
        </mxCell>
        <mxCell id="_je04n-Sk0oRXr9PTFX6-117" value="" style="endArrow=classic;html=1;rounded=0;labelBackgroundColor=none;labelBorderColor=none;strokeColor=#B20000;strokeWidth=1;fontSize=10;fontColor=default;jumpSize=3;entryX=0;entryY=1;entryDx=0;entryDy=0;fillColor=#e51400;exitX=0.5;exitY=0;exitDx=0;exitDy=0;" edge="1" parent="1" source="_je04n-Sk0oRXr9PTFX6-118" target="_je04n-Sk0oRXr9PTFX6-19">
          <mxGeometry width="50" height="50" relative="1" as="geometry">
            <mxPoint x="980" y="350" as="sourcePoint" />
            <mxPoint x="960" y="370" as="targetPoint" />
          </mxGeometry>
        </mxCell>
        <mxCell id="_je04n-Sk0oRXr9PTFX6-118" value="Ap 11:7; 13:5" style="text;html=1;strokeColor=none;fillColor=#FFF4C3;align=center;verticalAlign=middle;whiteSpace=wrap;rounded=0;shadow=0;labelBackgroundColor=none;sketch=0;strokeWidth=2;fontSize=10;fontColor=#FF0000;labelBorderColor=none;" vertex="1" parent="1">
          <mxGeometry x="875.5" y="220" width="70" height="20" as="geometry" />
        </mxCell>
        <mxCell id="_je04n-Sk0oRXr9PTFX6-122" value="Profetizam vestidas de sacos / Perseguição" style="text;html=1;strokeColor=none;fillColor=none;align=center;verticalAlign=middle;whiteSpace=wrap;rounded=0;shadow=0;glass=0;labelBackgroundColor=none;labelBorderColor=none;sketch=0;strokeWidth=1;fontSize=10;fontColor=#CC0000;" vertex="1" parent="1">
          <mxGeometry x="800" y="286.5" width="110" height="30" as="geometry" />
        </mxCell>
      </root>
    </mxGraphModel>
  </diagram>
</mxfile>
